HIERARCHY
ROOT Hips
{
	OFFSET 0.000000 0.000000 0.000000
	CHANNELS 6 Xposition Yposition Zposition Zrotation Yrotation Xrotation 
	JOINT LHipJoint
	{
		OFFSET 0.000000 0.000000 0.000000
		CHANNELS 3 Zrotation Yrotation Xrotation
		JOINT LeftUpLeg
		{
			OFFSET 1.363060 -1.794630 0.839290
			CHANNELS 3 Zrotation Yrotation Xrotation
			JOINT LeftLeg
			{
				OFFSET 2.448110 -6.726130 0.000000
				CHANNELS 3 Zrotation Yrotation Xrotation
				JOINT LeftFoot
				{
					OFFSET 2.562200 -7.039590 0.000000
					CHANNELS 3 Zrotation Yrotation Xrotation
					JOINT LeftToeBase
					{
						OFFSET 0.157640 -0.433110 2.322550
						CHANNELS 3 Zrotation Yrotation Xrotation
						End Site
						{
							OFFSET 0.000000 0.000000 0.000000
						}
					}
				}
			}
		}
	}
	JOINT RHipJoint
	{
		OFFSET 0.000000 0.000000 0.000000
		CHANNELS 3 Zrotation Yrotation Xrotation
		JOINT RightUpLeg
		{
			OFFSET -1.305520 -1.794630 0.839290
			CHANNELS 3 Zrotation Yrotation Xrotation
			JOINT RightLeg
			{
				OFFSET -2.542530 -6.985550 0.000000
				CHANNELS 3 Zrotation Yrotation Xrotation
				JOINT RightFoot
				{
					OFFSET -2.568260 -7.056230 0.000000
					CHANNELS 3 Zrotation Yrotation Xrotation
					JOINT RightToeBase
					{
						OFFSET -0.164730 -0.452590 2.363150
						CHANNELS 3 Zrotation Yrotation Xrotation
						End Site
						{
							OFFSET 0.000000 0.000000 0.000000
						}
					}
				}
			}
		}
	}
	JOINT LowerBack
	{
		OFFSET 0.000000 0.000000 0.000000
		CHANNELS 3 Zrotation Yrotation Xrotation
		JOINT Spine
		{
			OFFSET 0.028270 2.035590 -0.193380
			CHANNELS 3 Zrotation Yrotation Xrotation
			JOINT Spine1
			{
				OFFSET 0.056720 2.048850 -0.042750
				CHANNELS 3 Zrotation Yrotation Xrotation
				JOINT Neck
				{
					OFFSET 0.000000 0.000000 0.000000
					CHANNELS 3 Zrotation Yrotation Xrotation
					JOINT Neck1
					{
						OFFSET -0.054170 1.746240 0.172020
						CHANNELS 3 Zrotation Yrotation Xrotation
						JOINT Head
						{
							OFFSET 0.104070 1.761360 -0.123970
							CHANNELS 3 Zrotation Yrotation Xrotation
							End Site
							{
								OFFSET 0.000000 0.000000 0.000000
							}
						}
					}
				}
				JOINT LeftShoulder
				{
					OFFSET 0.000000 0.000000 0.000000
					CHANNELS 3 Zrotation Yrotation Xrotation
					JOINT LeftArm
					{
						OFFSET 3.362410 1.200890 -0.311210
						CHANNELS 3 Zrotation Yrotation Xrotation
						JOINT LeftForeArm
						{
							OFFSET 4.983000 -0.000000 -0.000000
							CHANNELS 3 Zrotation Yrotation Xrotation
							JOINT LeftHand
							{
								OFFSET 3.483560 -0.000000 -0.000000
								CHANNELS 3 Zrotation Yrotation Xrotation
								JOINT LeftFingerBase
								{
									OFFSET 0.000000 0.000000 0.000000
									CHANNELS 3 Zrotation Yrotation Xrotation
									JOINT LeftHandIndex1
									{
										OFFSET 0.715260 -0.000000 -0.000000
										CHANNELS 3 Zrotation Yrotation Xrotation
										End Site
										{
											OFFSET 0.000000 0.000000 0.000000
										}
									}
								}
								JOINT LThumb
								{
									OFFSET 0.000000 0.000000 0.000000
									CHANNELS 3 Zrotation Yrotation Xrotation
									End Site
									{
										OFFSET 0.000000 0.000000 0.000000
									}
								}
							}
						}
					}
				}
				JOINT RightShoulder
				{
					OFFSET 0.000000 0.000000 0.000000
					CHANNELS 3 Zrotation Yrotation Xrotation
					JOINT RightArm
					{
						OFFSET -3.136600 1.374050 -0.404650
						CHANNELS 3 Zrotation Yrotation Xrotation
						JOINT RightForeArm
						{
							OFFSET -5.241900 -0.000000 -0.000000
							CHANNELS 3 Zrotation Yrotation Xrotation
							JOINT RightHand
							{
								OFFSET -3.444170 -0.000000 -0.000000
								CHANNELS 3 Zrotation Yrotation Xrotation
								JOINT RightFingerBase
								{
									OFFSET 0.000000 0.000000 0.000000
									CHANNELS 3 Zrotation Yrotation Xrotation
									JOINT RightHandIndex1
									{
										OFFSET -0.622530 -0.000000 -0.000000
										CHANNELS 3 Zrotation Yrotation Xrotation
										End Site
										{
											OFFSET 0.000000 0.000000 0.000000
										}
									}
								}
								JOINT RThumb
								{
									OFFSET 0.000000 0.000000 0.000000
									CHANNELS 3 Zrotation Yrotation Xrotation
									End Site
									{
										OFFSET 0.000000 0.000000 0.000000
									}
								}
							}
						}
					}
				}
			}
		}
	}
}
MOTION
Frames: 8
Frame Time: 0.008333
-9.272290 17.602845 -16.105213 -162.171284 86.812073 -161.370390 2.281069 -1.348031 -0.136643 -13.226535 -13.006965 -0.012154 -1.150818 8.468883 22.588761 0.438692 3.451136 -16.672362 0.548900 -4.746200 -13.186000 -11.456785 -0.931768 -5.430065 23.352159 -7.597417 12.388580 2.014876 -0.665053 3.609386 0.421973 -10.463662 -12.133601 -0.040300 1.296100 -3.564000 1.766715 -1.168570 7.296291 1.333015 -1.444207 -2.081359 1.631540 -0.937125 -3.163818 -5.131208 -3.274616 -22.620005 3.749193 -3.124677 18.015442 1.533200 -1.499000 14.285600 4.980177 -7.625750 0.555367 -79.356910 -12.393125 53.104673 107.339026 -52.676642 -74.335239 -1.272010 0.319334 -36.332204 47.610798 15.219118 14.736000 -7.125000 0.000000 0.000000 20.871300 48.675300 1.971100 -6.184882 7.166419 1.326248 77.851912 12.557684 46.903069 -101.444098 54.426577 -66.145503 1.581614 -1.072930 -14.165337 -26.959686 -29.531055 13.971300 7.125000 0.000000 0.000000 2.422300 -60.614000 -0.922300 
-9.281667 17.606557 -16.107264 -162.103517 86.878689 -161.212101 2.278253 -1.361443 -0.148102 -13.203644 -12.870730 -0.193077 -1.149409 8.476284 22.590615 0.421695 3.488492 -16.561214 0.611500 -5.005100 -13.923100 -11.460298 -0.938643 -5.417210 23.364216 -7.476593 12.250303 2.015619 -0.666554 3.599111 0.431977 -10.535646 -12.076214 -0.042900 1.336300 -3.674600 1.833937 -1.130390 7.338950 1.272815 -1.383029 -2.087265 1.496937 -0.909747 -3.206786 -5.175140 -3.305201 -22.645250 3.751132 -3.156453 17.929881 1.536900 -1.519900 14.248400 4.941899 -7.575490 0.562350 -78.953986 -13.806857 52.889011 106.070040 -52.865800 -73.154993 -1.284641 0.328798 -36.751875 47.555522 15.393151 14.853300 -7.125000 0.000000 0.000000 20.854600 48.853600 2.064400 -6.158679 7.113017 1.315551 77.667509 13.939781 46.460274 -100.359387 54.595439 -65.111733 1.602745 -1.078855 -14.321139 -26.482224 -29.558054 13.721600 7.125000 0.000000 0.000000 2.974200 -60.519700 -1.126000 
-9.290849 17.609878 -16.111464 -161.630492 86.851040 -160.635518 2.284738 -1.386131 -0.167492 -13.136017 -12.774458 -0.408486 -1.138633 8.494522 22.634714 0.406309 3.504739 -16.425649 0.682600 -5.282300 -14.715400 -11.458647 -0.957089 -5.392637 23.417031 -7.412276 12.083396 2.017373 -0.674031 3.588192 0.442863 -10.622242 -12.022445 -0.047200 1.401700 -3.854700 1.968310 -1.122154 7.361680 1.235771 -1.357363 -2.097573 1.374184 -0.904297 -3.243246 -5.232788 -3.324559 -22.675047 3.737734 -3.165027 17.837324 1.537500 -1.535000 14.205900 4.908463 -7.530958 0.568078 -78.649114 -15.191400 52.679725 104.651399 -53.067855 -71.816084 -1.303457 0.344315 -37.132672 47.521915 15.519035 14.920100 -7.125000 0.000000 0.000000 20.844000 48.955900 2.117600 -6.130204 7.055620 1.307165 77.488353 15.279091 46.036316 -99.173787 54.774536 -63.970162 1.621513 -1.093587 -14.496879 -26.144324 -29.343326 13.438900 7.125000 0.000000 0.000000 3.258600 -60.194700 -1.208600 
-9.299249 17.613101 -16.117520 -160.895067 86.757053 -159.787663 2.297730 -1.417611 -0.191174 -13.041789 -12.742779 -0.629354 -1.122800 8.519886 22.706117 0.395401 3.503121 -16.303337 0.739400 -5.493400 -15.321300 -11.451654 -0.982231 -5.360431 23.492536 -7.391059 11.902047 2.018818 -0.685297 3.577690 0.450354 -10.686388 -11.984208 -0.049600 1.436800 -3.951500 2.135876 -1.143934 7.362557 1.223549 -1.370209 -2.111974 1.279715 -0.920482 -3.270497 -5.282236 -3.325500 -22.715896 3.693912 -3.146303 17.757147 1.524100 -1.541400 14.169400 4.880533 -7.490901 0.572194 -78.441832 -16.528181 52.444552 103.107721 -53.277699 -70.347038 -1.327237 0.365437 -37.428118 47.529409 15.604279 14.955900 -7.125000 0.000000 0.000000 20.863800 48.999100 2.142800 -6.099679 6.993918 1.300695 77.318389 16.591332 45.669697 -97.854017 54.966461 -62.698247 1.637631 -1.115459 -14.696492 -26.135738 -29.089014 13.312600 7.125000 0.000000 0.000000 3.141800 -59.891900 -1.142600 
-9.306575 17.616520 -16.124065 -160.077891 86.647091 -158.855389 2.313066 -1.450325 -0.215349 -12.944457 -12.762055 -0.830960 -1.106566 8.546906 22.784467 0.389546 3.492585 -16.219332 0.770000 -5.603300 -15.637600 -11.440857 -1.008523 -5.326369 23.569174 -7.381367 11.725254 2.019146 -0.697212 3.568188 0.452254 -10.705691 -11.965911 -0.047900 1.412000 -3.883200 2.295201 -1.182109 7.345565 1.227588 -1.406952 -2.126841 1.215716 -0.948647 -3.285179 -5.306790 -3.309272 -22.771401 3.624694 -3.108553 17.699580 1.495500 -1.539800 14.146000 4.856653 -7.452809 0.575395 -78.308815 -17.811003 52.170078 101.466690 -53.489846 -68.778817 -1.354547 0.391308 -37.614470 47.556247 15.668753 14.973500 -7.125000 0.000000 0.000000 20.897600 49.009000 2.151900 -6.068876 6.929671 1.295829 77.178058 17.878084 45.362505 -96.406088 55.169093 -61.307332 1.651209 -1.143327 -14.926825 -26.460185 -28.866707 13.371700 7.125000 0.000000 0.000000 2.655400 -59.685600 -0.952400 
-9.313120 17.619939 -16.129828 -159.255700 86.568845 -157.925511 2.327976 -1.481309 -0.238544 -12.861965 -12.791335 -0.998475 -1.092732 8.570439 22.854559 0.387465 3.483575 -16.178416 0.778700 -5.634100 -15.726200 -11.428267 -1.033946 -5.294362 23.634019 -7.348170 11.569647 2.018667 -0.707417 3.559369 0.450052 -10.688758 -11.958157 -0.043900 1.351500 -3.716500 2.414883 -1.218193 7.320688 1.234495 -1.444611 -2.136883 1.172828 -0.976378 -3.285914 -5.302112 -3.283909 -22.838175 3.551640 -3.067346 17.661388 1.460400 -1.533300 14.134700 4.834158 -7.414012 0.579003 -78.218751 -19.045135 51.857700 99.754633 -53.698669 -67.139476 -1.384277 0.420563 -37.706284 47.547872 15.740251 14.977900 -7.125000 0.000000 0.000000 20.896300 49.016200 2.155500 -6.040272 6.864862 1.292374 77.092575 19.132783 45.089559 -94.859279 55.376270 -59.874592 1.672586 -1.148415 -15.230257 -27.194055 -29.709224 14.138500 7.125000 0.000000 0.000000 2.097600 -60.705400 -0.803200 
-9.318883 17.622772 -16.133442 -158.393767 86.548476 -156.975116 2.342430 -1.510315 -0.261520 -12.802414 -12.784910 -1.129071 -1.081390 8.587908 22.911534 0.386719 3.483632 -16.168018 0.780900 -5.641800 -15.748500 -11.415192 -1.059589 -5.265524 23.687318 -7.267991 11.444211 2.018607 -0.715128 3.550317 0.448098 -10.669302 -11.942513 -0.041800 1.319900 -3.629300 2.481788 -1.236319 7.301743 1.233530 -1.462029 -2.137681 1.140086 -0.993339 -3.275192 -5.276298 -3.258988 -22.905049 3.499392 -3.036828 17.628068 1.431100 -1.525900 14.126400 4.810598 -7.372628 0.584233 -78.147474 -20.245272 51.513606 97.985877 -53.900185 -65.444426 -1.416042 0.451491 -37.754973 47.441834 15.845966 14.969200 -7.125000 0.000000 0.000000 20.801600 49.047200 2.161400 -6.015511 6.800693 1.290733 77.075492 20.351582 44.808252 -93.244999 55.585139 -58.453087 1.700017 -1.117963 -15.610795 -28.279781 -31.975429 15.793600 7.125000 0.000000 0.000000 1.715000 -63.336800 -0.763200 
-9.324451 17.624725 -16.134614 -157.408101 86.583215 -155.926305 2.358845 -1.538328 -0.285787 -12.763197 -12.717687 -1.226954 -1.070973 8.599524 22.959220 0.385351 3.493829 -16.168261 0.791200 -5.678200 -15.853400 -11.401481 -1.087500 -5.238940 23.738230 -7.139326 11.350593 2.020362 -0.720965 3.540278 0.451144 -10.686927 -11.901751 -0.045800 1.380800 -3.797400 2.499360 -1.229828 7.303532 1.221329 -1.449318 -2.127676 1.114698 -0.994719 -3.260007 -5.242731 -3.241071 -22.958554 3.481118 -3.024198 17.582618 1.415900 -1.520600 14.109700 4.784954 -7.329208 0.591817 -78.087796 -21.430266 51.140226 96.156432 -54.092438 -63.691779 -1.449997 0.482238 -37.831057 47.198816 16.003629 14.947500 -7.125000 0.000000 0.000000 20.576500 49.119800 2.174100 -5.994260 6.738605 1.291773 77.116854 21.541327 44.479343 -91.579318 55.791655 -56.892130 1.726808 -1.126469 -15.878244 -28.192554 -32.353214 15.907900 7.125000 0.000000 0.000000 1.969400 -63.681800 -0.892300 
